<?xml version="1.0" standalone="yes"?>
<svg xmlns="http://www.w3.org/2000/svg" width="600" height="600">
<path style="fill:#ffffff; stroke:none;" d="M0 0L0 600L600 600L600 0L0 0z"/>
<path style="fill:#fcc70d; stroke:none;" d="M190.004 192.668C179.845 195.575 182 208.954 182 217L182 293C182 300.881 181.421 317.856 193.996 315.248C204.716 313.024 202 299.088 202 291L202 215C202 207.454 203.246 188.879 190.004 192.668M405 192L406 193L405 192z"/>
<path style="fill:#c61259; stroke:none;" d="M406.001 192.613C395.564 195.094 398 209.059 398 217L398 293C398 300.767 396.816 318.521 409.999 315.387C420.436 312.906 418 298.941 418 291L418 215C418 207.18 419.328 189.444 406.001 192.613z"/>
<path style="fill:#fcc70d; stroke:none;" d="M410 192L411 193L410 192M401 194L402 195L401 194M414 194L415 195L414 194M400 195L401 196L400 195M415 195L416 196L415 195M398 199L399 200L398 199M135.004 229.743C130.585 231.431 128.327 235.479 128.044 240C127.176 253.87 124.446 275.766 128.653 288.996C130.466 294.7 136.321 297.259 141.96 295.486C148.143 293.542 147.998 287.349 148 282C148.006 268.078 151.285 249.41 147.566 236.004C146.079 230.642 140.211 227.753 135.004 229.743z"/>
<path style="fill:#10ed8b; stroke:none;" d="M243.005 229.746C238.195 231.555 236.282 236.224 236.04 241C235.344 254.737 232.487 275.896 236.653 288.996C238.45 294.649 244.408 297.448 249.985 295.258C255.772 292.985 255.991 287.324 256 282C256.023 268.307 259.484 249.092 255.486 236.005C253.911 230.848 248.148 227.812 243.005 229.746z"/>
<path style="fill:#0655f9; stroke:none;" d="M351.005 229.746C346.194 231.55 344.282 236.228 344.04 241C343.347 254.689 340.453 275.947 344.653 288.985C346.42 294.472 352.516 297.452 357.957 295.258C363.417 293.056 363.973 287.09 363.999 282C364.072 268.035 366.772 250.601 363.606 237.004C362.325 231.504 356.573 227.659 351.005 229.746z"/>
<path style="fill:#fcc70d; stroke:none;" d="M459 229L460 230L459 229z"/>
<path style="fill:#c61259; stroke:none;" d="M460.001 229.613C455.51 230.679 452.605 234.558 452.109 239C450.595 252.537 448.531 276.034 452.653 288.996C454.352 294.339 459.566 297.064 464.985 295.566C470.255 294.108 471.839 288.89 471.985 284C472.4 270.043 475.268 250.447 471.566 237.001C470.225 232.127 465.109 228.4 460.001 229.613z"/>
<path style="fill:#fcc70d; stroke:none;" d="M464 229L465 230L464 229M456 230L457 231L456 230M455 231L456 232L455 231M468 231L469 232L468 231M454 232L455 233L454 232M469 232L470 233L469 232M453 233L454 234L453 233M470 233L471 234L470 233M452 235L453 236L452 235M471 235L472 236L471 235z"/>
<path style="fill:#10ed8b; stroke:none;" d="M344 236L345 237L344 236z"/>
<path style="fill:#fcc70d; stroke:none;" d="M80.6667 256.333L81.3333 256.667L80.6667 256.333z"/>
<path style="fill:#c61259; stroke:none;" d="M82.0039 256.588C70.1668 259.674 70.3086 299.956 86.9961 295.562C98.8588 292.44 98.5287 252.279 82.0039 256.588z"/>
<path style="fill:#fcc70d; stroke:none;" d="M87 256L88 257L87 256z"/>
<path style="fill:#10ed8b; stroke:none;" d="M297.004 256.746C284.672 261.354 285.912 302.354 303.985 295.258C314.959 290.949 313.86 250.448 297.004 256.746z"/>
<path style="fill:#fcc70d; stroke:none;" d="M512 256L513 257L512 256z"/>
<path style="fill:#c61259; stroke:none;" d="M513.015 256.707C500.872 260.765 501.664 300.757 518.985 295.485C531.288 291.74 529.802 251.096 513.015 256.707z"/>
<path style="fill:#fcc70d; stroke:none;" d="M519 256L520 257L519 256M78 257L79 258L78 257M89 257L90 258L89 257M510 257L511 258L510 257M521 257L522 258L521 257M77 258L78 259L77 258M91 258L92 259L91 258M509 258L510 259L509 258M522 258L523 259L522 258M76 259L77 260L76 259M523 259L524 260L523 259M92 260L93 261L92 260M507 260L508 261L507 260M524 260L525 261L524 260M75 261L76 262L75 261M93 261L94 262L93 261M506 262L507 263L506 262M74 263L74 289L75 289L74 263M525 263L526 264L525 263M94 264L94 288L95 288L94 264M525.333 288.667L525.667 289.333L525.333 288.667z"/>
<path style="fill:#10ed8b; stroke:none;" d="M363 289L364 290L363 289z"/>
<path style="fill:#fcc70d; stroke:none;" d="M452 289L453 290L452 289M471 289L472 290L471 289M506 289L507 290L506 289M93 290L94 291L93 290M75 291L76 292L75 291z"/>
<path style="fill:#10ed8b; stroke:none;" d="M362 291L363 292L362 291z"/>
<path style="fill:#fcc70d; stroke:none;" d="M453 291L454 292L453 291M470 291L471 292L470 291M507 291L508 292L507 291M524 291L525 292L524 291M76 292L77 293L76 292M92 292L93 293L92 292M77 293L78 294L77 293M91 293L92 294L91 293M78 294L79 295L78 294M90 294L91 295L90 294z"/>
<path style="fill:#10ed8b; stroke:none;" d="M348 294L349 295L348 294z"/>
<path style="fill:#fcc70d; stroke:none;" d="M521 294L522 295L521 294M79.6667 295.333L80.3333 295.667L79.6667 295.333M88 295L89 296L88 295M457 295L458 296L457 295M511 295L512 296L511 295M83 296L83 297L86 297L83 296M515.667 296.333L516.333 296.667L515.667 296.333M398 308L399 309L398 308M417.333 308.667L417.667 309.333L417.333 308.667M416 311L417 312L416 311M400 312L401 313L400 312M415 312L416 313L415 312M401 313L402 314L401 313M414 313L415 314L414 313M405 315L406 316L405 315M410 315L411 316L410 315M272 348L272 349L284 349L272 348M358 348L358 349L369 349L358 348M439 348L439 349L449 349L439 348M107 349L107 350L142 350L107 349M267.667 349.333L268.333 349.667L267.667 349.333z"/>
<path style="fill:#c61259; stroke:none;" d="M249 410L249 428C268.853 428.41 301.783 434.038 301.995 404C302.029 399.18 301.241 394.998 298.362 391.004C292.979 383.534 284.983 381.877 277 378.612C274.329 377.52 270.207 375.427 270.207 372.011C270.207 361.237 291.46 366.762 297 367L297 351C278.143 347.447 248.993 346.651 249.002 373C249.003 376.533 249.225 379.786 250.84 382.999C256.99 395.241 271.576 392.401 279.412 401.39C283.113 405.636 279.451 409.931 274.996 411.347C266.79 413.957 257.196 411.058 249 410z"/>
<path style="fill:#fcc70d; stroke:none;" d="M288 349L288 350L291 350L288 349M352 349L352 350L355 350L352 349z"/>
<path style="fill:#c61259; stroke:none;" d="M381 407C373.204 408.147 365.946 411.642 358 408.891C341.252 403.094 338.202 381.619 353.001 371.702C361.829 365.786 371.867 368.596 381 372L381 351C371.766 349.209 362.359 347.936 353 349.808C345.634 351.281 338.504 354.927 333.093 360.174C314.76 377.95 319.283 411.226 341 423.767C348.709 428.219 372.848 435.237 379.972 426.262C383.012 422.432 381 411.727 381 407z"/>
<path style="fill:#fcc70d; stroke:none;" d="M373.667 349.333L374.333 349.667L373.667 349.333M433.667 349.333L434.333 349.667L433.667 349.333z"/>
<path style="fill:#c61259; stroke:none;" d="M435 349.465C384.08 358.645 398.649 438.263 449 429.385C456.192 428.117 463.138 425.989 469 421.471C503.792 394.655 476.553 341.973 435 349.465z"/>
<path style="fill:#fcc70d; stroke:none;" d="M452.667 349.333L453.333 349.667L452.667 349.333z"/>
<path style="fill:#c61259; stroke:none;" d="M107 350L107 430C119.796 430 140.258 433.883 152 428.583C179.199 416.306 183.892 375.75 159.996 357.761C144.955 346.437 124.783 350 107 350z"/>
<path style="fill:#fcc70d; stroke:none;" d="M145.667 350.333L146.333 350.667L145.667 350.333z"/>
<path style="fill:#c61259; stroke:none;" d="M202 350L202 428L222 428L222 350L202 350z"/>
<path style="fill:#fcc70d; stroke:none;" d="M264 350L265 351L264 350M294.667 350.333L295.333 350.667L294.667 350.333M349 350L350 351L349 350M378.667 350.333L379.333 350.667L378.667 350.333M429.667 350.333L430.333 350.667L429.667 350.333M456.667 350.333L457.333 350.667L456.667 350.333M149 351L150 352L149 351M262 351L263 352L262 351M346 351L347 352L346 351M381 351L381 372L382 372L381 351M427 351L428 352L427 351M459 351L460 352L459 351M151 352L152 353L151 352M260 352L261 353L260 352M344 352L345 353L344 352M424.667 352.333L425.333 352.667L424.667 352.333M462 352L463 353L462 352M153 353L154 354L153 353M258 353L259 354L258 353M342 353L343 354L342 353M423 353L424 354L423 353M464 353L465 354L464 353M155 354L156 355L155 354M257 354L258 355L257 354M340 354L341 355L340 354M421 354L422 355L421 354M465 354L466 355L465 354M156 355L157 356L156 355M255 355L256 356L255 355M419 355L420 356L419 355M467 355L468 356L467 355M158 356L159 357L158 356M254 356L255 357L254 356M337 356L338 357L337 356M418 356L419 357L418 356M159 357L160 358L159 357M336 357L337 358L336 357M470 357L471 358L470 357M161 358L162 359L161 358M415 358L416 359L415 358M471 358L472 359L471 358M162 359L163 360L162 359M252 359L253 360L252 359M414 359L415 360L414 359M472 359L473 360L472 359M251 360L252 361L251 360M413 360L414 361L413 360M473 360L474 361L473 360M412 361L413 362L412 361M474 361L475 362L474 361M250 362L251 363L250 362M475 362L476 363L475 362M476 363L477 364L476 363M166 364L167 365L166 364M249.333 364.667L249.667 365.333L249.333 364.667M329 364L330 365L329 364M410 364L411 365L410 364M167 365L168 366L167 365M278 365L278 366L285 366L278 365M328 365L329 366L328 365M409 365L410 366L409 365M168 366L169 367L168 366M274 366L275 367L274 366M290.667 366.333L291.333 366.667L290.667 366.333M478 366L479 367L478 366M127 414L136 414L136 413L128 413L128 368L133 368C126.252 365.436 127 373.534 127 378L127 414M272 367L273 368L272 367M294 367L294 368L297 368L294 367M327 367L328 368L327 367z"/>
<path style="fill:#ffffff; stroke:none;" d="M128 368L128 413C133.501 413 139.086 413.416 143.961 410.387C156.719 402.456 157.425 381.75 145.96 372.394C140.657 368.065 134.486 368.001 128 368z"/>
<path style="fill:#fcc70d; stroke:none;" d="M138.667 368.333L139.333 368.667L138.667 368.333M169 368L170 369L169 368M248 368L248 377L249 377L248 368M326 368L327 369L326 368M360 368L360 369L370 369L360 368M407 368L408 369L407 368M442 368L442 369L446 369L442 368M141 369L142 370L141 369M357 369L358 370L357 369M373 369L374 370L373 369M437.667 369.333L438.333 369.667L437.667 369.333z"/>
<path style="fill:#ffffff; stroke:none;" d="M439 369.529C413.528 375.416 423.129 414.451 449 408.471C473.944 402.705 464.012 363.749 439 369.529z"/>
<path style="fill:#fcc70d; stroke:none;" d="M449 369L450 370L449 369M480 369L481 370L480 369M143 370L144 371L143 370M170 370L171 371L170 370M269 370L269 374L270 374L269 370M325.333 370.667L325.667 371.333L325.333 370.667M354 370L355 371L354 370M376.667 370.333L377.333 370.667L376.667 370.333M406 370L407 371L406 370M435 370L436 371L435 370M452 370L453 371L452 370M145 371L146 372L145 371M352 371L353 372L352 371M379 371L380 372L379 371M433 371L434 372L433 371M454 371L455 372L454 371M481.333 371.667L481.667 372.333L481.333 371.667M146 372L147 373L146 372M171 372L172 373L171 372M351 372L352 373L351 372M405 372L406 373L405 372M431 372L432 373L431 372M455 372L456 373L455 372M147 373L148 374L147 373M324 373L325 374L324 373M430 373L431 374L430 373M456 373L457 374L456 373M148 374L149 375L148 374M172 374L173 375L172 374M429 374L430 375L429 374M482 374L483 375L482 374M149 375L150 376L149 375M404 375L405 376L404 375M428 375L429 376L428 375M173.333 376.667L173.667 377.333L173.333 376.667M323 376L324 377L323 376M347 376L348 377L347 376M427 376L428 377L427 376M483.333 376.667L483.667 377.333L483.333 376.667M150 377L151 378L150 377M273.667 377.333L274.333 377.667L273.667 377.333M346 377L347 378L346 377M460 377L461 378L460 377M151 378L152 379L151 378M276 378L277 379L276 378M403 378L404 379L403 378M426 378L427 379L426 378M174.333 379.667L174.667 380.333L174.333 379.667M279 379L280 380L279 379M322.333 379.667L322.667 380.333L322.333 379.667M345 379L346 380L345 379M425 379L426 380L425 379M461 379L462 380L461 379M152.333 380.667L152.667 381.333L152.333 380.667M249 380L250 381L249 380M282 380L283 381L282 380M484 380L484 383L485 383L484 380M285 381L286 382L285 381M344.333 381.667L344.667 382.333L344.333 381.667M424.333 381.667L424.667 382.333L424.333 381.667M462 381L463 382L462 381M250 382L251 383L250 382M402 382L402 385L403 385L402 382M153.333 383.667L153.667 384.333L153.333 383.667M175 383L175 387L176 387L175 383M289 383L290 384L289 383M251 384L252 385L251 384M291 384L292 385L291 384M321 384L321 394L322 394L321 384M343 384L343 388L344 388L343 384M463.333 384.667L463.667 385.333L463.333 384.667M293 385L294 386L293 385M423 385L423 393L424 393L423 385M294 386L295 387L294 386M253 387L254 388L253 387M295 387L296 388L295 387M254 388L255 389L254 388M296 388L297 389L296 388M255 389L256 390L255 389M297 389L298 390L297 389M257 390L258 391L257 390M298 390L299 391L298 390M343 390L343 394L344 394L343 390M258 391L259 392L258 391M260 392L261 393L260 392M299 392L300 393L299 392M402 392L402 396L403 396L402 392M262 393L263 394L262 393M463.333 393.667L463.667 394.333L463.333 393.667M175 394L175 398L176 398L175 394M264 394L265 395L264 394M300 394L301 395L300 394M266.667 395.333L267.333 395.667L266.667 395.333M424.333 395.667L424.667 396.333L424.333 395.667M484 395L484 398L485 398L484 395M153.333 396.667L153.667 397.333L153.333 396.667M269.667 396.333L270.333 396.667L269.667 396.333M301 396L302 397L301 396M344 396L345 397L344 396M462.333 396.667L462.667 397.333L462.333 396.667M272.667 397.333L273.333 397.667L272.667 397.333M275 398L276 399L275 398M322.333 398.667L322.667 399.333L322.333 398.667M345 398L346 399L345 398M425 398L426 399L425 398M461.333 398.667L461.667 399.333L461.333 398.667M277 399L278 400L277 399M302 399L302 407L303 407L302 399M403.333 399.667L403.667 400.333L403.333 399.667M152 400L153 401L152 400M174.333 400.667L174.667 401.333L174.333 400.667M279 400L280 401L279 400M346 400L347 401L346 400M426 400L427 401L426 400M460 400L461 401L460 400M483.333 400.667L483.667 401.333L483.333 400.667M427 401L428 402L427 401M151 402L152 403L151 402M323 402L324 403L323 402M404.333 402.667L404.667 403.333L404.333 402.667M281 403L281 407L282 407L281 403M348 403L349 404L348 403M458 403L459 404L458 403M482.333 403.667L482.667 404.333L482.333 403.667M150 404L151 405L150 404M173 404L174 405L173 404M457 404L458 405L457 404M149 405L150 406L149 405M324 405L325 406L324 405M351 405L352 406L351 405M405 405L406 406L405 405M431 405L432 406L431 405M148 406L149 407L148 406M172.333 406.667L172.667 407.333L172.333 406.667M352 406L353 407L352 406M379 406L379 407L381 427L382 427L382 406L379 406M432 406L433 407L432 406M454 406L455 407L454 406M481 406L482 407L481 406M325 407L326 408L325 407M354 407L355 408L354 407M377 407L378 408L377 407M406 407L407 408L406 407M434 407L435 408L434 407M452 407L453 408L452 407M146 408L147 409L146 408M280 408L281 409L280 408M356 408L357 409L356 408M374 408L375 409L374 408M436.667 408.333L437.333 408.667L436.667 408.333M449.667 408.333L450.333 408.667L449.667 408.333M480 408L481 409L480 408M145 409L146 410L145 409M171 409L172 410L171 409M249 409L250 410L249 409M279 409L280 410L279 409M326 409L327 410L326 409M359 409L359 410L362 410L359 409M368 409L368 410L371 410L368 409M407 409L408 410L407 409M440 409L440 410L448 410L440 409M144 410L145 411L144 410M248 410L248 427L249 427L248 410M252 410L252 411L255 411L252 410M277 410L278 411L277 410M301.333 410.667L301.667 411.333L301.333 410.667M479 410L480 411L479 410M142 411L143 412L142 411M170 411L171 412L170 411M257 411L257 412L260 412L257 411M274.667 411.333L275.333 411.667L274.667 411.333M408 411L409 412L408 411M478 411L479 412L478 411M139.667 412.333L140.333 412.667L139.667 412.333M169 412L170 413L169 412M328 412L329 413L328 412M409 412L410 413L409 412M300.333 413.667L300.667 414.333L300.333 413.667M477 413L478 414L477 413M168 414L169 415L168 414M410 414L411 415L410 414M476 414L477 415L476 414M167 415L168 416L167 415M330 415L331 416L330 415M411 415L412 416L411 415M475 415L476 416L475 415M299 416L300 417L299 416M331 416L332 417L331 416M412 416L413 417L412 416M474 416L475 417L474 416M166 417L167 418L166 417M298 417L299 418L298 417M332 417L333 418L332 417M413 417L414 418L413 417M473 417L474 418L473 417M165 418L166 419L165 418M333 418L334 419L333 418M414 418L415 419L414 418M472 418L473 419L472 418M164 419L165 420L164 419M334 419L335 420L334 419M415 419L416 420L415 419M471 419L472 420L471 419M163 420L164 421L163 420M335 420L336 421L335 420M416 420L417 421L416 420M470 420L471 421L470 420M162 421L163 422L162 421M295 421L296 422L295 421M337 421L338 422L337 421M469 421L470 422L469 421M161 422L162 423L161 422M338 422L339 423L338 422M419 422L420 423L419 422M467 422L468 423L467 422M292 423L293 424L292 423M340 423L341 424L340 423M466 423L467 424L466 423M158 424L159 425L158 424M291 424L292 425L291 424M342 424L343 425L342 424M422 424L423 425L422 424M464 424L465 425L464 424M157 425L158 426L157 425M289 425L290 426L289 425M343 425L344 426L343 425M424 425L425 426L424 425M462 425L463 426L462 425M155 426L156 427L155 426M287 426L288 427L287 426M346 426L347 427L346 426M426 426L427 427L426 426M460 426L461 427L460 426M154 427L155 428L154 427M284 427L285 428L284 427M348.667 427.333L349.333 427.667L348.667 427.333M379.667 427.333L380.333 427.667L379.667 427.333M429 427L430 428L429 427M457.667 427.333L458.333 427.667L457.667 427.333M152 428L153 429L152 428M203 428L203 429L221 429L203 428M252 428L252 429L256 429L252 428M280.667 428.333L281.333 428.667L280.667 428.333M352.667 428.333L353.333 428.667L352.667 428.333M374.667 428.333L375.333 428.667L374.667 428.333M432.667 428.333L433.333 428.667L432.667 428.333M453.667 428.333L454.333 428.667L453.667 428.333M106 429L107 430L106 429M150 429L151 430L150 429M260 429L260 430L265 430L260 429M274 429L274 430L277 430L274 429M357 429L357 430L360 430L357 429M368 429L368 430L371 430L368 429M437 429L437 430L440 430L437 429M448 429L448 430L451 430L448 429z"/>
</svg>
